<?xml version="1.0" encoding="utf-8"?>
<!-- Generator: Adobe Illustrator 23.0.3, SVG Export Plug-In . SVG Version: 6.00 Build 0)  -->
<svg version="1.1" id="Layer_1" xmlns="http://www.w3.org/2000/svg" xmlns:xlink="http://www.w3.org/1999/xlink" x="0px" y="0px"
	 viewBox="0 0 70 70" style="enable-background:new 0 0 70 70;" xml:space="preserve">
<path style="fill:#141414;" d="M4.4,33.6c1,0.6,1.6,1.1,2.5,1.8c0.9,0.7,1.9,1.4,2.8,2.1c1.9,1.4,3.8,2.7,5.6,4.1
	c1.8,1.5,3.6,3.2,5,5.1c1.3,1.7,3.6,4,5,5.6c1.8,1.9,1.5,2.6,4.6,1.2c0.4-0.2,0.8-0.4,0.9-0.8c0.1-0.4,0-0.8-0.2-1.1
	c-3.1-6.5-8.7-11.3-14.2-16c14.8,0.6,29.6,1.1,44.4,1.7c1.4,0.1,3,0.1,4.2-0.7c1.1-0.7,1.6-2.4,0.7-3.5c-0.2-0.2-0.3-0.3-0.5-0.3
	c-0.3,0-0.7-0.1-1-0.1c-2.8,0-5.7,0-8.5,0c-2.8-0.1-5.6-0.1-8.4-0.2c-2.8-0.1-5.6-0.2-8.4-0.3c-2.8-0.1-5.6-0.3-8.4-0.4
	c-2.8-0.2-6.1,0.3-8.9,0.1c-2.1-0.1-4.7-0.1-6.8-0.3c5.4-4.6,13.9-9,20-13.7c0.6-0.4,1.2-1.1,0.9-1.7c-0.1-0.2-0.3-0.4-0.5-0.5
	C33,14.4,31.6,15,29.6,16c-2,1-4.2,2.4-5.9,3.8c-5.2,4.1-11.5,7.3-17.4,10.4c-0.6,0.3-1.1,0.7-1.5,1.1c-0.3,0.3-0.9,0.5-0.9,1
	C3.9,32.7,4.2,33.5,4.4,33.6z"/>
</svg>
