<?xml version="1.0" encoding="utf-8"?>
<!-- Generator: Adobe Illustrator 23.0.3, SVG Export Plug-In . SVG Version: 6.00 Build 0)  -->
<svg version="1.1" id="Layer_1" xmlns="http://www.w3.org/2000/svg" xmlns:xlink="http://www.w3.org/1999/xlink" x="0px" y="0px"
	 viewBox="0 0 70 70" style="enable-background:new 0 0 70 70;" xml:space="preserve">
<path style="fill:#141414;" d="M55.1,34.1c-0.7-0.3-1.1-0.6-1.7-1c-0.6-0.4-1.3-0.8-2-1.2c-1.3-0.8-2.6-1.5-3.9-2.4
	c-1.3-0.9-2.5-1.9-3.6-3.1c-0.9-1.1-2.6-2.4-3.6-3.4c-1.3-1.1-1.1-1.6-3.1-0.5c-0.2,0.1-0.5,0.3-0.5,0.6c-0.1,0.3,0.1,0.5,0.2,0.7
	c2.4,4.1,6.4,6.9,10.2,9.7c-9.8,0.5-19.5,1-29.3,1.4c-1,0-2,0.1-2.7,0.7c-0.6,0.5-0.9,1.7-0.2,2.3c0.1,0.1,0.2,0.2,0.3,0.2
	c0.2,0,0.4,0,0.7,0c1.8-0.1,3.7-0.4,5.6-0.5s3.7-0.2,5.6-0.3c1.9-0.1,3.7-0.2,5.6-0.3c1.9-0.1,3.7-0.1,5.6-0.2s4-0.5,5.8-0.6
	c1.4,0,3.1-0.2,4.5-0.2c-3.3,3.3-8.6,6.7-12.4,10.1c-0.3,0.3-0.7,0.8-0.5,1.2c0.1,0.1,0.2,0.2,0.4,0.3c1.3,0.7,2.2,0.2,3.5-0.6
	c1.3-0.8,2.6-1.8,3.7-2.8c3.2-3,7.1-5.5,10.8-7.8c0.4-0.2,0.7-0.5,0.9-0.8c0.2-0.2,0.5-0.4,0.5-0.7C55.5,34.8,55.2,34.2,55.1,34.1z"
	/>
</svg>
