
<svg version="1.1" id="Layer_1" xmlns="http://www.w3.org/2000/svg" xmlns:xlink="http://www.w3.org/1999/xlink" x="0px" y="0px"
	 viewBox="0 0 70 70" style="enable-background:new 0 0 70 70;" xml:space="preserve" width="70px" height="70px">
<path style="fill:#141414;" d="M64.4,18.9L64,18.1c-1.2-2.3-3.2-4.6-5.9-6.7c-2.7-2.1-6-3.9-9.6-5.3c-2.5-0.9-5.1-1.6-7.6-2v2.1
	c2.3,0.4,4.7,1,6.9,1.8c7,2.6,12.7,8.8,14.6,13.3c4.1,9.8,4.4,19.2,0.8,25.3c-3.3,5.5-7.5,11.2-15.3,14.3
	c-19,7.7-31.4,2.7-41.2-16.7c-2-4-2.2-9.1-0.4-14.3C10,18.9,20.7,9.5,23.1,8.4C23.4,8.3,23.7,8.1,24,8c4.5-1.9,9.7-2.6,15-2V3.9
	c-6-0.6-11.8,0.3-16.8,2.7C19.6,7.8,7.6,18.1,3.6,30c-1.9,5.7-1.7,10.9,0.6,15.5c7.1,14,16.2,20.9,28,20.9c4.9,0,10.4-1.2,16.3-3.6
	c0.3-0.1,0.7-0.3,1-0.4c7.4-3.2,12.8-8.6,15.7-15.6C68.7,38.6,68.4,28.4,64.4,18.9z"/>
</svg>
